<svg width="71" height="70" viewBox="0 0 71 70" fill="none" xmlns="http://www.w3.org/2000/svg">
<g filter="url(#filter0_d_2_2434)">
<circle cx="35.3996" cy="22.0246" r="16.7999" fill="#6A4029"/>
</g>
<path d="M35.3996 5.22461C26.1211 5.22461 18.5996 12.7461 18.5996 22.0246C18.5996 31.3031 26.1211 38.8246 35.3996 38.8246C44.6781 38.8246 52.1996 31.3031 52.1996 22.0246C52.1996 12.7461 44.6781 5.22461 35.3996 5.22461ZM42.2334 18.9866C42.2404 19.1301 42.2421 19.2736 42.2421 19.4136C42.2421 23.7886 38.9154 28.8304 32.8289 28.8304C31.0304 28.8334 29.2693 28.3168 27.7574 27.3429C28.0146 27.3744 28.2789 27.3866 28.5466 27.3866C30.0971 27.3866 31.5234 26.8599 32.6556 25.9709C31.9656 25.9573 31.297 25.7288 30.7431 25.3173C30.1891 24.9057 29.7773 24.3316 29.5651 23.6749C30.0606 23.7691 30.5711 23.7493 31.0579 23.6171C30.3089 23.4657 29.6355 23.0599 29.1516 22.4685C28.6677 21.8772 28.4033 21.1367 28.4031 20.3726V20.3324C28.8494 20.5791 29.3604 20.7296 29.9029 20.7471C29.2008 20.2797 28.7037 19.5618 28.5134 18.7401C28.3231 17.9184 28.454 17.0551 28.8791 16.3266C29.7103 17.3486 30.7468 18.1847 31.9216 18.7807C33.0964 19.3766 34.3833 19.7193 35.6989 19.7864C35.5316 19.0764 35.6036 18.3311 35.9036 17.6662C36.2037 17.0014 36.7149 16.4543 37.358 16.1101C38.001 15.7658 38.7398 15.6436 39.4594 15.7625C40.1791 15.8814 40.8393 16.2348 41.3374 16.7676C42.0779 16.6211 42.7881 16.3495 43.4374 15.9644C43.1905 16.7311 42.6738 17.3822 41.9831 17.7966C42.6391 17.7176 43.2796 17.5412 43.8836 17.2734C43.44 17.9382 42.8811 18.5184 42.2334 18.9866Z" fill="#FFBA33"/>
<defs>
<filter id="filter0_d_2_2434" x="0.599609" y="0.224609" width="69.6001" height="69.5996" filterUnits="userSpaceOnUse" color-interpolation-filters="sRGB">
<feFlood flood-opacity="0" result="BackgroundImageFix"/>
<feColorMatrix in="SourceAlpha" type="matrix" values="0 0 0 0 0 0 0 0 0 0 0 0 0 0 0 0 0 0 127 0" result="hardAlpha"/>
<feOffset dy="13"/>
<feGaussianBlur stdDeviation="9"/>
<feColorMatrix type="matrix" values="0 0 0 0 0.0658854 0 0 0 0 0.0730469 0 0 0 0 0.1375 0 0 0 0.08 0"/>
<feBlend mode="normal" in2="BackgroundImageFix" result="effect1_dropShadow_2_2434"/>
<feBlend mode="normal" in="SourceGraphic" in2="effect1_dropShadow_2_2434" result="shape"/>
</filter>
</defs>
</svg>
